<mxfile
  host="Electron" 
  agent="Mozilla/5.0 (Macintosh; Intel Mac OS X 10_15_7) AppleWebKit/537.36 (KHTML, like Gecko) draw.io/25.0.2 Chrome/128.0.6613.186 Electron/32.2.5 Safari/537.36" 
  version="25.0.2"
  >
  <diagram
    name="-"
    >
    <mxGraphModel
      grid="1" 
      gridSize="10" 
      guides="1" 
      tooltips="1" 
      connect="1" 
      arrows="1" 
      fold="1" 
      page="1" 
      pageScale="1" 
      pageWidth="1" 
      pageHeight="1" 
      math="0" 
      shadow="0"
      >
      <root>
        <mxCell
          id="page"
          />
        <mxCell
          id="root" 
          parent="page"
          />
        <mxCell
          style="verticalAlign=top;aspect=fixed;align=center;spacingLeft=5;spacingRight=5;spacingBottom=5;strokeColor=none;" 
          id="shape_" 
          parent="root" 
          value=" " 
          vertex="1"
          >
          <mxGeometry
            as="geometry" 
            width="298.44" 
            height="95.04" 
            x="0" 
            y="0"
            />
          </mxCell>
        <mxCell
          style="verticalLabelPosition=bottom;aspect=fixed;html=1;verticalAlign=top;fillColor=strokeColor;align=center;outlineConnect=0;shape=mxgraph.fluid_power.x10450;points=[[0.433,0,0],[0.433,1,0],[0.5,1,0],[0.567,0,0],[0.567,1,0],[0.233,0.25,0],[0.233,0.75,0],[0.298,0.75,0],[0.365,0.25,0],[0.365,0.75,0],[0.632,0.25,0],[0.632,0.75,0],[0.764,0.25,0],[0.7,0.75,0],[0.767,0.75,0],[0,0.5,0],[0,0.625,0],[0,0.75,0],[1,0.5,0],[1,0.625,0],[1,0.75,0]];" 
          id="x1045053_pneumatic_" 
          parent="shape_" 
          value=" " 
          vertex="1"
          >
          <mxGeometry
            width="278.44" 
            height="75.04" 
            as="geometry" 
            x="10" 
            y="10"
            />
          </mxCell>
        </root>
      </mxGraphModel>
    </diagram>
  </mxfile>